# xmcd
#
# Track frame offsets:
#	150
#	12878
#	25035
#	38524
#	51055
#	62705
#	74938
#	86365
#	98853
#	111569
#	124896
#	137959
#	149786
#	161892
#	174824
#	186440
#	196976
#	209826
#	221386
#	231887
#
# Disc length: 3249 seconds
# Revision: 0
# Processed by: cddbd v1.5.2PL0 Copyright (c) Steve Scherf et al.
# Submitted via: dBpowerAMP V12.0
#
DISCID=340caf14
DTITLE=Roy Acuff - The Essential Recordings CD2
DYEAR=2016
DGENRE=Country
TTITLE0=The Prodigal Son
TTITLE1=I'll Forgive But Can't Forget
TTITLE2=Tennessee Waltz
TTITLE3=The Wreck On The Highway
TTITLE4=Fireball Mail
TTITLE5=I'll Reap My Harvest In Heaven
TTITLE6=Write Me Sweetheart
TTITLE7=Pins And Needles
TTITLE8=We Live In Two Different Worlds
TTITLE9=Waiting For The Call To Glory
TTITLE10=Jole Blon
TTITLE11=Waltz Of The Wind
TTITLE12=A Sinner's Death
TTITLE13=Smoky Mountain Rag
TTITLE14=Lonesome Joe
TTITLE15=Sunshine Special
TTITLE16=Lonely Mound Of Clay
TTITLE17=Once More
TTITLE18=So Many Times
TTITLE19=Come And Knock
EXTD=
EXTT0=
EXTT1=
EXTT2=
EXTT3=
EXTT4=
EXTT5=
EXTT6=
EXTT7=
EXTT8=
EXTT9=
EXTT10=
EXTT11=
EXTT12=
EXTT13=
EXTT14=
EXTT15=
EXTT16=
EXTT17=
EXTT18=
EXTT19=
PLAYORDER=
